<?xml version="1.0" encoding="UTF-8" standalone="no"?>
<svg
   xmlns:dc="http://purl.org/dc/elements/1.1/"
   xmlns:cc="http://creativecommons.org/ns#"
   xmlns:rdf="http://www.w3.org/1999/02/22-rdf-syntax-ns#"
   xmlns:svg="http://www.w3.org/2000/svg"
   xmlns="http://www.w3.org/2000/svg"
   height="15.8"
   width="94.099998"
   xml:space="preserve"
   viewBox="0 0 94.099998 15.8"
   y="0px"
   x="0px"
   id="Isolation_Mode"
   version="1.1"><metadata
     id="metadata58"><rdf:RDF><cc:Work
         rdf:about=""><dc:format>image/svg+xml</dc:format><dc:type
           rdf:resource="http://purl.org/dc/dcmitype/StillImage" /><dc:title></dc:title></cc:Work></rdf:RDF></metadata><defs
     id="defs56" /><style
     id="style49"
     type="text/css">
	.st0{fill:#003895;}
</style><path
     style="fill:#003895"
     id="path51"
     d="m 79.8,9.8 c 0,-0.2 0.1,-0.3 0.3,-0.3 h 9.2 c 0.8,0 1.5,-0.7 1.5,-1.5 0,-0.8 -0.7,-1.5 -1.5,-1.5 H 80.1 C 79.9,6.5 79.8,6.3 79.8,6.2 V 5.3 c 0,-0.9 0.7,-1.7 1.7,-1.7 h 10.9 c 0.9,0 1.7,-0.7 1.7,-1.7 C 94.1,1 93.4,0.2 92.4,0.2 H 80.8 c -2.5,0 -4.6,2 -4.6,4.6 v 6.4 c 0,2.5 2,4.5 4.6,4.6 h 11.5 c 0.9,0 1.7,-0.7 1.7,-1.7 0,-1 -0.7,-1.7 -1.7,-1.7 H 81.5 c -0.9,0 -1.7,-0.7 -1.7,-1.7 z m -27.2,1.8 c 0.2,0.1 0.3,0.2 0.3,0.4 0,0.2 -0.2,0.4 -0.4,0.4 H 40.6 c -0.9,0 -1.7,0.7 -1.7,1.7 0,1 0.7,1.7 1.7,1.7 h 12.1 c 2,0 3.7,-1.7 3.7,-3.7 0,-1.6 -1,-3 -2.4,-3.5 L 42.1,4.3 C 41.9,4.2 41.8,4.1 41.8,3.9 41.8,3.7 42,3.5 42.2,3.5 h 11.9 c 0.9,0 1.7,-0.7 1.7,-1.7 0,-0.9 -0.7,-1.7 -1.7,-1.7 H 42 c -2.1,0 -3.7,1.7 -3.7,3.7 0,1.5 0.9,2.9 2.3,3.4 z m 12,2.4 c 0,1 0.8,1.8 1.8,1.8 1,0 1.8,-0.8 1.8,-1.8 V 3.8 c 0,-0.2 0.2,-0.3 0.3,-0.3 h 5.6 c 0.9,0 1.7,-0.7 1.7,-1.7 0,-1 -0.8,-1.6 -1.7,-1.6 H 58.7 c -0.9,0 -1.7,0.7 -1.7,1.7 0,1 0.7,1.7 1.7,1.7 h 5.6 c 0.2,0 0.3,0.1 0.3,0.3 z M 23.1,9.8 c 0,-0.2 0.1,-0.3 0.3,-0.3 h 9.2 c 0.8,0 1.5,-0.7 1.5,-1.5 0,-0.8 -0.7,-1.5 -1.5,-1.5 H 23.4 C 23.2,6.5 23.1,6.3 23.1,6.2 V 5.1 c 0,-0.9 0.7,-1.7 1.7,-1.7 h 10.9 c 0.9,0 1.7,-0.7 1.7,-1.7 C 37.4,0.8 36.7,0 35.7,0 H 24.1 C 21.6,0 19.6,2 19.6,4.6 V 11 c 0,2.5 2,4.5 4.5,4.5 h 11.5 c 0.9,0 1.7,-0.7 1.7,-1.7 0,-1 -0.7,-1.7 -1.7,-1.7 H 24.8 c -0.9,0 -1.7,-0.7 -1.7,-1.7 z M 0.3,0.2 h 12.9 c 2.5,0 4.5,2 4.5,4.6 V 14 c 0,1 -0.8,1.8 -1.8,1.8 -1,0 -1.7,-0.8 -1.7,-1.8 V 5.1 C 14.2,4.2 13.5,3.4 12.5,3.4 H 3.8 C 3.6,3.4 3.5,3.6 3.5,3.7 V 14 c 0,1 -0.8,1.8 -1.8,1.8 C 0.8,15.8 0,15 0,14 V 0.5 C 0,0.3 0.2,0.2 0.3,0.2 Z"
     class="st0" /></svg>