<?xml version="1.0" encoding="UTF-8" standalone="no"?>
<!-- Created with Inkscape (http://www.inkscape.org/) -->

<svg
   width="132.2916mm"
   height="29.49959mm"
   viewBox="0 0 132.2916 29.49959"
   version="1.1"
   id="svg1"
   sodipodi:docname="Shell 1994 wordmark.svg"
   inkscape:version="1.4 (86a8ad7, 2024-10-11)"
   xmlns:inkscape="http://www.inkscape.org/namespaces/inkscape"
   xmlns:sodipodi="http://sodipodi.sourceforge.net/DTD/sodipodi-0.dtd"
   xmlns="http://www.w3.org/2000/svg"
   xmlns:svg="http://www.w3.org/2000/svg">
  <sodipodi:namedview
     id="namedview1"
     pagecolor="#ffffff"
     bordercolor="#000000"
     borderopacity="0.25"
     inkscape:showpageshadow="2"
     inkscape:pageopacity="0.0"
     inkscape:pagecheckerboard="0"
     inkscape:deskcolor="#d1d1d1"
     inkscape:document-units="mm"
     inkscape:zoom="2.7901515"
     inkscape:cx="146.22862"
     inkscape:cy="49.638881"
     inkscape:window-width="1920"
     inkscape:window-height="1001"
     inkscape:window-x="-9"
     inkscape:window-y="-9"
     inkscape:window-maximized="1"
     inkscape:current-layer="layer1" />
  <defs
     id="defs1" />
  <g
     inkscape:label="Layer 1"
     inkscape:groupmode="layer"
     id="layer1"
     transform="translate(-38.893111,-133.66379)">
    <rect
       id="rect403"
       height="9.0499487"
       width="28.055653"
       clip-path="url(#SVGID_32_)"
       y="162.13475"
       x="-162.32309"
       style="fill:#ed1c24;stroke-width:0.3211"
       transform="rotate(-90)" />
    <rect
       id="rect405"
       height="9.0485992"
       width="28.055653"
       clip-path="url(#SVGID_32_)"
       y="145.05402"
       x="-162.32309"
       style="fill:#ed1c24;stroke-width:0.3211"
       transform="rotate(-90)" />
    <path
       id="path407"
       d="m 130.92162,149.09778 h -12.31139 c 0.0148,-0.0904 0.0284,-0.18223 0.0432,-0.27403 0.007,-0.0459 0.0163,-0.0904 0.0256,-0.13635 0.0445,-0.22543 0.10534,-0.44548 0.18359,-0.66147 0.0783,-0.21598 0.1728,-0.42522 0.28214,-0.62636 0.13905,-0.25379 0.30239,-0.49542 0.48598,-0.71951 0.19709,-0.2403 0.41713,-0.46303 0.65336,-0.66552 0.31454,-0.26999 0.65742,-0.50488 1.02191,-0.70331 0.35908,-0.19305 0.73435,-0.34828 1.12314,-0.46168 0.39148,-0.11336 0.78971,-0.19709 1.19469,-0.24839 0.35368,-0.0445 0.71006,-0.0675 1.06779,-0.0675 0.0688,0 0.13635,0.001 0.20249,0.002 0.45088,0.0109 0.89906,0.0567 1.34184,0.13769 0.42523,0.077 0.8437,0.189 1.25139,0.33479 0.34828,0.12419 0.68171,0.27943 0.99894,0.46707 0.31049,0.18359 0.60208,0.39688 0.87207,0.63582 0.20248,0.18224 0.39282,0.38068 0.56426,0.59398 0.1647,0.20383 0.31184,0.42251 0.44008,0.65066 0.1215,0.21733 0.2241,0.44413 0.30913,0.67767 0.0851,0.23218 0.14985,0.47112 0.1944,0.71411 0.007,0.0392 0.0148,0.0783 0.0216,0.11748 0.0109,0.0769 0.0229,0.15524 0.0337,0.23218 m 8.59503,4.17535 H 118.4873 c -0.001,0.0851 -0.001,0.16874 -0.001,0.25379 0,0.0419 0,0.0851 0.001,0.12689 0.007,0.30779 0.0392,0.61422 0.0959,0.91661 0.054,0.28348 0.13228,0.56157 0.23488,0.8302 0.1404,0.36448 0.31993,0.71142 0.53862,1.03406 0.20114,0.29967 0.44143,0.57236 0.71142,0.81131 0.32668,0.29023 0.68576,0.54131 1.06779,0.7492 0.40498,0.2187 0.82751,0.39284 1.26759,0.52108 0.39418,0.11335 0.79646,0.19978 1.2028,0.25784 0.41847,0.058 0.83965,0.0891 1.26353,0.0904 0.0121,0 0.0243,0 0.0351,0 0.37393,0 0.74921,-0.0229 1.1191,-0.0688 0.36852,-0.0472 0.73436,-0.11747 1.09614,-0.21193 0.35774,-0.0945 0.70331,-0.2268 1.03406,-0.39283 0.29832,-0.1485 0.57506,-0.33208 0.8302,-0.54537 0.18629,-0.15794 0.35368,-0.33614 0.49813,-0.53322 0.14713,-0.20384 0.27403,-0.42389 0.37123,-0.65743 0.0216,-0.0485 0.0405,-0.0985 0.0607,-0.14848 0.0256,-0.0648 0.05,-0.1296 0.0743,-0.1944 h 8.93386 c -0.0485,0.12959 -0.0972,0.25784 -0.14849,0.38609 -0.0243,0.0635 -0.0513,0.12689 -0.0783,0.19033 -0.15254,0.34829 -0.33613,0.68172 -0.54942,0.9949 -0.25378,0.37258 -0.53457,0.72491 -0.84236,1.05295 -0.42387,0.45223 -0.88285,0.8707 -1.37422,1.25274 -0.49813,0.38878 -1.02866,0.73842 -1.58212,1.0462 -0.70873,0.39553 -1.45119,0.73031 -2.21929,1.00029 -0.84372,0.297 -1.70902,0.52782 -2.58783,0.69252 -0.80861,0.15119 -1.62532,0.26189 -2.44608,0.33343 -0.78566,0.0688 -1.57537,0.10255 -2.36508,0.10255 -0.0688,0 -0.13634,0 -0.20384,-10e-4 -0.89095,-0.007 -1.78056,-0.058 -2.66747,-0.15524 -0.841,-0.0918 -1.67662,-0.22814 -2.50277,-0.40903 -1.09345,-0.23894 -2.15855,-0.59398 -3.17505,-1.05835 -0.9841,-0.45088 -1.9169,-1.0084 -2.77951,-1.66312 -0.68711,-0.52107 -1.30808,-1.12315 -1.85075,-1.79405 -0.52108,-0.64393 -0.96116,-1.35129 -1.30674,-2.1059 -0.28618,-0.62368 -0.50353,-1.27704 -0.64796,-1.94795 -0.14986,-0.70602 -0.22815,-1.42553 -0.22949,-2.14775 0,-0.75326 0.0823,-1.50518 0.23893,-2.24224 0.1539,-0.70331 0.38609,-1.38638 0.69522,-2.03704 0.36717,-0.78161 0.83831,-1.51058 1.39448,-2.1707 0.61691,-0.73166 1.31753,-1.38773 2.08699,-1.95605 0.72761,-0.53592 1.50113,-1.0057 2.31379,-1.40258 0.82885,-0.40499 1.69282,-0.73572 2.57973,-0.98815 0.88014,-0.25109 1.7819,-0.43198 2.6931,-0.53998 0.93416,-0.11202 1.87506,-0.16738 2.81732,-0.16738 0.12959,0 0.25648,0 0.38742,0.002 0.97736,0.0163 1.952,0.0917 2.92127,0.22814 0.93955,0.13228 1.871,0.32397 2.78626,0.57507 1.02189,0.27943 2.01274,0.66281 2.95769,1.14339 0.87071,0.44277 1.69012,0.98005 2.44339,1.60372 0.74651,0.61691 1.40123,1.33779 1.94524,2.13964 0.52918,0.78027 0.94091,1.63342 1.22305,2.53113 0.19573,0.61962 0.34693,1.25273 0.44952,1.89395 0.11335,0.69253 0.1809,1.39043 0.1998,2.0924 0.002,0.0756 0.004,0.15119 0.005,0.22813 0.009,0.15255 0.0109,0.30509 0.0121,0.45763 z"
       clip-rule="evenodd"
       clip-path="url(#SVGID_32_)"
       style="fill:#ed1c24;fill-rule:evenodd;stroke-width:0.3211" />
    <path
       id="path409"
       d="m 85.256082,134.26743 v 9.40498 c 0.13499,-0.11068 0.271339,-0.22139 0.407688,-0.33074 0.06748,-0.054 0.136336,-0.10801 0.206531,-0.16064 0.377991,-0.28618 0.774865,-0.54672 1.1893,-0.77892 0.511621,-0.28753 1.040791,-0.54806 1.580761,-0.77756 0.602071,-0.25648 1.216291,-0.47922 1.841311,-0.66821 0.579122,-0.17549 1.169045,-0.31724 1.764368,-0.42388 0.558867,-0.0999 1.123146,-0.16874 1.68876,-0.20789 0.364483,-0.0243 0.728966,-0.0364 1.094796,-0.0364 0.210585,0 0.42253,0.004 0.631768,0.0121 0.635822,0.0243 1.26759,0.0932 1.89261,0.20249 0.572374,0.10121 1.136641,0.24434 1.687417,0.42928 0.646622,0.21464 1.260838,0.51702 1.826458,0.89636 0.58723,0.39418 1.1218,0.86395 1.59023,1.39582 0.41982,0.47788 0.78295,1.00299 1.08128,1.56593 0.2619,0.49407 0.45763,1.02189 0.58048,1.56726 0.10255,0.45898 0.17955,0.92336 0.22409,1.39043 0.0621,0.62233 0.0959,1.24599 0.10121,1.87101 0.001,0.26999 0.002,0.53862 0.004,0.80727 10e-4,0.41848 10e-4,0.83695 10e-4,1.25408 v 10.64287 H 95.841821 V 150.7177 c 0,-0.44548 -0.0049,-0.89096 -0.01481,-1.33778 -0.0049,-0.19844 -0.02027,-0.39689 -0.04053,-0.59398 -0.04053,-0.34558 -0.137696,-0.68307 -0.286181,-0.99625 -0.159298,-0.33208 -0.368536,-0.63717 -0.622326,-0.90446 -0.251083,-0.26457 -0.533223,-0.49676 -0.839659,-0.68981 -0.302382,-0.18898 -0.62502,-0.33883 -0.9625,-0.44548 -0.330733,-0.10388 -0.670919,-0.17954 -1.016494,-0.22813 -0.317238,-0.0445 -0.641223,-0.0661 -0.96386,-0.0661 -0.04187,0 -0.08507,0 -0.129589,0 -0.371231,0.008 -0.741115,0.0419 -1.106945,0.10535 -0.307783,0.0527 -0.610165,0.13229 -0.904453,0.23893 -0.379338,0.1377 -0.739767,0.31859 -1.077248,0.53997 -0.359082,0.23624 -0.689814,0.51163 -0.989503,0.82076 -0.352335,0.36449 -0.657411,0.77216 -0.909854,1.21089 -0.220039,0.38338 -0.383379,0.79511 -0.487325,1.22304 -0.06614,0.27674 -0.116142,0.55618 -0.147137,0.83831 -0.04321,0.37798 -0.06748,0.75731 -0.07427,1.13665 -0.0036,0.23353 -0.0073,0.46707 -0.0085,0.70061 -0.0024,0.32399 -0.0036,0.64797 -0.0036,0.9733 v 9.07965 H 76.208244 V 134.2675 H 85.2555"
       clip-path="url(#SVGID_32_)"
       style="fill:#ed1c24;stroke-width:0.3211" />
    <path
       id="path411"
       d="m 70.032896,142.71531 h -9.301034 c 0,-0.0904 -0.0024,-0.18225 -0.0036,-0.27269 -0.0024,-0.0716 -0.0049,-0.14175 -0.0085,-0.21194 -0.01347,-0.27134 -0.05267,-0.53997 -0.118812,-0.80457 -0.06214,-0.24433 -0.149844,-0.48327 -0.261884,-0.70871 -0.118813,-0.24298 -0.265938,-0.46977 -0.437385,-0.67901 -0.183582,-0.2214 -0.390126,-0.42388 -0.616913,-0.60343 -0.264591,-0.20789 -0.548078,-0.39418 -0.846407,-0.55212 -0.283487,-0.15254 -0.581828,-0.27673 -0.888252,-0.37258 -0.356388,-0.11201 -0.719524,-0.19843 -1.088048,-0.25919 -0.39418,-0.0648 -0.793761,-0.10255 -1.193341,-0.11614 v 0.001 c -0.09988,-0.004 -0.199797,-0.005 -0.299689,-0.005 -0.267285,0 -0.53457,0.0109 -0.800508,0.0324 -0.355029,0.0297 -0.708711,0.0796 -1.057004,0.14985 -0.353682,0.0716 -0.700604,0.17143 -1.038097,0.29698 -0.330732,0.12419 -0.649316,0.27539 -0.955752,0.45088 -0.268633,0.15659 -0.521075,0.33883 -0.753263,0.54808 -0.220039,0.19709 -0.417129,0.41847 -0.588563,0.66011 -0.161993,0.22679 -0.287541,0.47653 -0.373937,0.74111 -0.08507,0.25649 -0.128242,0.52243 -0.12959,0.79241 0,0.26863 0.04187,0.53593 0.122842,0.79376 0.07561,0.23759 0.191689,0.46032 0.344228,0.65877 0.19709,0.25919 0.431984,0.48867 0.695215,0.68172 0.241642,0.17549 0.510286,0.31183 0.793761,0.40362 0.31589,0.10122 0.635821,0.18225 0.961153,0.24299 0.434678,0.081 0.87341,0.14039 1.313488,0.17954 0.615567,0.0553 1.232492,0.10534 1.848059,0.15254 0.610166,0.0472 1.220344,0.0904 1.830509,0.1296 h 0.0012 c 1.023254,0.0661 2.046496,0.13499 3.069749,0.20519 0.411729,0.0271 0.822111,0.058 1.233839,0.0891 0.900401,0.0701 1.795413,0.20113 2.678264,0.39282 0.766758,0.16739 1.52002,0.39419 2.250333,0.68037 0.792414,0.30913 1.525433,0.75461 2.165296,1.31484 0.623673,0.54537 1.144748,1.19874 1.538928,1.92905 0.256484,0.47382 0.44952,0.98005 0.573721,1.50517 0.141737,0.59397 0.214639,1.20144 0.215986,1.81161 0,0.62907 -0.06881,1.25813 -0.207891,1.87235 -0.136337,0.59127 -0.341534,1.165 -0.612872,1.70767 -0.330733,0.66283 -0.745156,1.28109 -1.23248,1.83861 -0.458975,0.52513 -0.986809,0.98545 -1.569972,1.36884 -0.855861,0.56292 -1.765716,1.03944 -2.716068,1.42553 -0.992197,0.40227 -2.020852,0.7114 -3.071096,0.922 -1.081301,0.21733 -2.170696,0.38068 -3.26684,0.49136 -1.158243,0.11615 -2.320528,0.17956 -3.484172,0.189 -0.114686,0.001 -0.23084,0.001 -0.345587,0.001 -0.980049,0 -1.958752,-0.0337 -2.934747,-0.10255 -1.065099,-0.0743 -2.126145,-0.19169 -3.181802,-0.35233 -0.965195,-0.14579 -1.919601,-0.36313 -2.853751,-0.65067 -0.824805,-0.25244 -1.62802,-0.57506 -2.400178,-0.96115 -0.560226,-0.28078 -1.082648,-0.63311 -1.552423,-1.04755 h 0.0012 c -0.481923,-0.42522 -0.908507,-0.90985 -1.268936,-1.44173 -0.229494,-0.33883 -0.427931,-0.69791 -0.592617,-1.07185 -0.183595,-0.41577 -0.332092,-0.8437 -0.444132,-1.28243 -0.08095,-0.31858 -0.145791,-0.64121 -0.190343,-0.96655 -0.04721,-0.33208 -0.07561,-0.66687 -0.08507,-1.00165 -0.0012,-0.0432 -0.0024,-0.0864 -0.0036,-0.12959 -0.0012,-0.0851 -0.0012,-0.17145 -0.0024,-0.25783 h 9.33749 c 0.0012,0.12149 0.0049,0.24163 0.0097,0.36043 0.0036,0.0932 0.0085,0.18494 0.01481,0.27808 0.01893,0.25919 0.06614,0.51568 0.139043,0.76541 0.06481,0.22139 0.156592,0.43333 0.272686,0.63177 0.155245,0.26729 0.341533,0.51433 0.554825,0.73571 0.218692,0.22679 0.461681,0.42659 0.72626,0.59533 0.337492,0.21598 0.691174,0.40362 1.059698,0.56157 0.395527,0.17009 0.804562,0.31048 1.221691,0.41982 0.441426,0.11469 0.890958,0.20249 1.343185,0.26189 0.453574,0.0595 0.909854,0.0904 1.366135,0.0932 0.02427,0 0.04721,0 0.0716,0 0.409034,0 0.818057,-0.0203 1.224385,-0.0621 0.448185,-0.0459 0.893665,-0.11615 1.333743,-0.20789 0.407675,-0.0851 0.807256,-0.19575 1.200089,-0.3321 0.310477,-0.10801 0.61286,-0.24028 0.903106,-0.39687 0.264579,-0.1431 0.506221,-0.32398 0.718153,-0.53728 0.234894,-0.23624 0.436037,-0.50352 0.600724,-0.79376 0.13499,-0.23893 0.238935,-0.49407 0.309142,-0.75866 0.07015,-0.26458 0.106677,-0.53726 0.108012,-0.81131 0,-0.28213 -0.03774,-0.56427 -0.112016,-0.83695 -0.05801,-0.21195 -0.152551,-0.41173 -0.280793,-0.59127 -0.179541,-0.2511 -0.400928,-0.46843 -0.654717,-0.64257 -0.27538,-0.189 -0.580469,-0.33208 -0.903107,-0.42388 -0.357723,-0.10255 -0.722206,-0.18494 -1.090743,-0.24433 -0.450879,-0.0729 -0.9058,-0.1242 -1.360734,-0.1539 l -4.237434,-0.27674 c -0.846407,-0.0553 -1.691467,-0.12554 -2.536526,-0.21059 -0.842354,-0.0864 -1.68336,-0.18764 -2.521672,-0.30374 -0.874757,-0.12148 -1.741419,-0.30373 -2.591867,-0.54537 -0.59803,-0.16874 -1.177151,-0.39822 -1.730617,-0.68171 -0.506221,-0.25919 -0.967901,-0.59667 -1.368829,-1.0003 -0.463028,-0.46708 -0.861261,-0.99491 -1.181193,-1.56863 -0.309142,-0.55346 -0.549425,-1.14339 -0.712764,-1.75626 -0.167393,-0.62771 -0.256484,-1.27298 -0.268644,-1.9223 0,-0.73707 0.0824,-1.47278 0.242988,-2.19229 0.153898,-0.62907 0.398234,-1.23384 0.726272,-1.79272 0.44952,-0.76676 1.01244,-1.46197 1.669864,-2.06134 0.666866,-0.60882 1.420128,-1.1137 2.235491,-1.50112 0.805909,-0.38203 1.63882,-0.70062 2.494669,-0.95306 0.949005,-0.28078 1.915559,-0.49542 2.894261,-0.64122 0.880158,-0.12959 1.764356,-0.22543 2.651261,-0.28348 0.81671,-0.0527 1.63342,-0.0796 2.451489,-0.0796 0.139043,0 0.276727,0 0.41577,0.002 0.966554,0.01 1.931761,0.0608 2.894261,0.15255 0.927403,0.0891 1.849406,0.21733 2.764661,0.38607 0.9004,0.16605 1.785958,0.40364 2.647219,0.71142 0.784307,0.28079 1.541622,0.62907 2.263841,1.04215 0.517021,0.29563 0.996251,0.65202 1.428222,1.0624 0.413076,0.39148 0.776212,0.83426 1.079954,1.31619 0.207879,0.33208 0.391474,0.67901 0.548066,1.03809 0.16874,0.39013 0.311836,0.79106 0.426583,1.20009 0.0716,0.25919 0.133642,0.52242 0.184942,0.78567 0.04721,0.24163 0.08374,0.48461 0.109346,0.72895 0.0073,0.0688 0.01347,0.13904 0.01893,0.20789 0.01092,0.13904 0.02027,0.27809 0.02973,0.41713"
       clip-path="url(#SVGID_32_)"
       style="fill:#ed1c24;stroke-width:0.3211" />
  </g>
</svg>
