<?xml version="1.0" encoding="utf-8" standalone="no"?>
<!DOCTYPE svg PUBLIC "-//W3C//DTD SVG 1.0//EN"
"http://www.w3.org/TR/2001/REC-SVG-20010904/DTD/svg10.dtd">
<svg xmlns:svg="http://www.w3.org/2000/svg"
xmlns="http://www.w3.org/2000/svg" version="1.0" width="74.887001"
height="19.261702" id="svg2">
<defs id="defs4">
<marker markerUnits="strokeWidth" refX="0" refY="5" markerWidth="4"
markerHeight="3" orient="auto" viewBox="0 0 10 10" id="ArrowEnd">
<path d="M 0,0 L 10,5 L 0,10 L 0,0 z" id="path7" />
</marker>
<marker markerUnits="strokeWidth" refX="10" refY="5"
markerWidth="4" markerHeight="3" orient="auto" viewBox="0 0 10 10"
id="ArrowStart">
<path d="M 10,0 L 0,5 L 10,10 L 10,0 z" id="path10" />
</marker>
</defs>
<g transform="translate(26.859007,-19.462575)" id="g12">
<path d="M -26.859007,19.462575 L 48.027993,19.462575 L 48.027993,38.724277 L -26.859007,38.724277 L -26.859007,19.462575 z"
id="path14" style="fill:#e7342c;fill-rule:evenodd;stroke:none" />
<path d="M -18.363007,25.489977 L -22.148007,25.489977 L -21.316007,22.068077 L -10.089007,22.068077 L -10.910007,25.489977 L -14.597007,25.489977 L -17.085007,35.642277 L -20.824017,35.642277 L -18.363007,25.489977 z"
id="path16" style="fill:#ffffff;fill-rule:evenodd;stroke:none" />
<path d="M -8.558007,22.068077 L 2.574993,22.068077 L 1.746993,25.489977 L -5.761007,25.489977 L -6.238007,27.361077 L 0.37599301,27.361077 L -0.42500699,30.384477 L -6.976007,30.384477 L -7.402007,32.228277 L 0.10199301,32.228277 L -0.68300699,35.653977 L -11.882007,35.653977 L -8.558007,22.068077 z"
id="path18" style="fill:#ffffff;fill-rule:evenodd;stroke:none" />
<path d="M 36.363993,22.068077 L 40.046993,22.068077 L 37.617993,32.228277 L 43.011993,32.228277 L 42.175993,35.657877 L 33.086993,35.657877 L 36.363993,22.068077 z"
id="path20" style="fill:#ffffff;fill-rule:evenodd;stroke:none" />
<path d="M 28.007993,35.642277 L 31.289993,22.068077 L 35.082993,22.068077 L 31.796993,35.626677 L 28.007993,35.642277 z"
id="path22" style="fill:#ffffff;fill-rule:evenodd;stroke:none" />
<path d="M 7.031993,25.345377 L 6.582993,27.232177 L 9.765993,27.232177 C 10.671993,27.239977 10.945993,26.825877 11.011993,26.341477 C 11.078993,25.802477 10.699993,25.345377 10.300993,25.345377 L 7.031993,25.345377 z M 12.277993,22.071977 C 13.257993,22.091477 14.003993,22.489977 14.535993,23.107177 C 16.129993,24.892277 14.980993,28.329777 12.105993,28.556377 C 12.031993,28.560277 14.539993,28.892277 13.847993,32.099277 C 13.488993,33.798577 11.918993,35.650077 9.652993,35.650077 L 0.76599301,35.657877 L 4.050993,22.068077 L 12.277993,22.071977 z M 5.836993,30.337577 L 5.382993,32.228277 L 8.570993,32.228277 C 9.476993,32.232177 9.750993,31.821977 9.816993,31.333677 C 9.882993,30.794677 9.503993,30.337577 9.105993,30.337577 L 5.836993,30.337577 z"
id="path24" style="fill:#ffffff;fill-rule:evenodd;stroke:none" />
<path d="M 19.062993,28.739977 C 18.453993,30.911777 18.875993,32.357177 20.961993,32.357177 C 22.550993,32.357177 24.023993,31.861077 24.757993,28.763377 C 25.218993,26.728277 24.933993,25.310277 22.910993,25.341477 C 22.046993,25.364977 19.910993,25.189177 19.062993,28.739977 M 23.836993,21.661777 C 28.773993,21.575877 29.468993,25.673577 28.453993,29.134477 C 27.058993,34.896177 24.351993,36.013377 20.097993,36.013377 C 15.367993,36.013377 14.711993,32.599277 15.250993,28.876677 C 16.636993,22.243877 20.070993,21.693077 23.183993,21.661777 L 23.539993,21.657877 L 23.836993,21.661777 z"
id="path26" style="fill:#ffffff;fill-rule:evenodd;stroke:none" />
</g>
</svg>
